<?xml version="1.0" encoding="UTF-8" standalone="no"?>
<!DOCTYPE svg PUBLIC "-//W3C//DTD SVG 1.1//EN"
 "http://www.w3.org/Graphics/SVG/1.1/DTD/svg11.dtd">
<!-- Generated by graphviz version 2.43.0 (0)
 -->
<!-- Title: G Pages: 1 -->
<svg width="2158pt" height="188pt"
 viewBox="0.00 0.00 2157.84 188.00" xmlns="http://www.w3.org/2000/svg" xmlns:xlink="http://www.w3.org/1999/xlink">
<g id="graph0" class="graph" transform="scale(1 1) rotate(0) translate(4 184)">
<title>G</title>
<polygon fill="white" stroke="transparent" points="-4,4 -4,-184 2153.84,-184 2153.84,4 -4,4"/>
<!-- ffmpeg -->
<g id="node1" class="node">
<title>ffmpeg</title>
<ellipse fill="none" stroke="black" cx="1129.34" cy="-162" rx="42.79" ry="18"/>
<text text-anchor="middle" x="1129.34" y="-158.3" font-family="Times,serif" font-size="14.00">ffmpeg</text>
</g>
<!-- libmp3lame -->
<g id="node2" class="node">
<title>libmp3lame</title>
<ellipse fill="none" stroke="black" cx="64.34" cy="-90" rx="64.19" ry="18"/>
<text text-anchor="middle" x="64.34" y="-86.3" font-family="Times,serif" font-size="14.00">libmp3lame</text>
</g>
<!-- ffmpeg&#45;&gt;libmp3lame -->
<g id="edge1" class="edge">
<title>ffmpeg&#45;&gt;libmp3lame</title>
<path fill="none" stroke="black" d="M1086.06,-161.39C947.31,-162.05 501.48,-159.72 137.34,-108 131.57,-107.18 125.57,-106.12 119.62,-104.94"/>
<polygon fill="black" stroke="black" points="120.18,-101.48 109.67,-102.85 118.74,-108.34 120.18,-101.48"/>
</g>
<!-- libtheora -->
<g id="node3" class="node">
<title>libtheora</title>
<ellipse fill="none" stroke="black" cx="205.34" cy="-90" rx="59.29" ry="18"/>
<text text-anchor="middle" x="205.34" y="-86.3" font-family="Times,serif" font-size="14.00">libtheora</text>
</g>
<!-- ffmpeg&#45;&gt;libtheora -->
<g id="edge2" class="edge">
<title>ffmpeg&#45;&gt;libtheora</title>
<path fill="none" stroke="black" d="M1086.29,-161.11C960.41,-160.84 582.35,-155.78 273.34,-108 268.01,-107.17 262.48,-106.12 256.98,-104.95"/>
<polygon fill="black" stroke="black" points="257.7,-101.53 247.18,-102.73 256.16,-108.35 257.7,-101.53"/>
</g>
<!-- libvorbis -->
<g id="node4" class="node">
<title>libvorbis</title>
<ellipse fill="none" stroke="black" cx="341.34" cy="-90" rx="59.29" ry="18"/>
<text text-anchor="middle" x="341.34" y="-86.3" font-family="Times,serif" font-size="14.00">libvorbis</text>
</g>
<!-- ffmpeg&#45;&gt;libvorbis -->
<g id="edge3" class="edge">
<title>ffmpeg&#45;&gt;libvorbis</title>
<path fill="none" stroke="black" d="M1086.44,-160.4C974.39,-158.29 663.97,-148.89 409.34,-108 404.22,-107.18 398.91,-106.16 393.63,-105.03"/>
<polygon fill="black" stroke="black" points="394.08,-101.54 383.55,-102.74 392.53,-108.37 394.08,-101.54"/>
</g>
<!-- libspeex -->
<g id="node5" class="node">
<title>libspeex</title>
<ellipse fill="none" stroke="black" cx="472.34" cy="-90" rx="53.89" ry="18"/>
<text text-anchor="middle" x="472.34" y="-86.3" font-family="Times,serif" font-size="14.00">libspeex</text>
</g>
<!-- ffmpeg&#45;&gt;libspeex -->
<g id="edge4" class="edge">
<title>ffmpeg&#45;&gt;libspeex</title>
<path fill="none" stroke="black" d="M1086.51,-159.74C988.32,-156.29 739.71,-144.4 535.34,-108 530.64,-107.16 525.78,-106.14 520.94,-105.02"/>
<polygon fill="black" stroke="black" points="521.63,-101.58 511.09,-102.59 519.96,-108.38 521.63,-101.58"/>
</g>
<!-- librav1e -->
<g id="node6" class="node">
<title>librav1e</title>
<ellipse fill="none" stroke="black" cx="598.34" cy="-90" rx="53.89" ry="18"/>
<text text-anchor="middle" x="598.34" y="-86.3" font-family="Times,serif" font-size="14.00">librav1e</text>
</g>
<!-- ffmpeg&#45;&gt;librav1e -->
<g id="edge5" class="edge">
<title>ffmpeg&#45;&gt;librav1e</title>
<path fill="none" stroke="black" d="M1087.07,-158.36C1004.62,-152.73 816.78,-137.6 661.34,-108 656.72,-107.12 651.93,-106.08 647.17,-104.95"/>
<polygon fill="black" stroke="black" points="648,-101.55 637.45,-102.53 646.31,-108.34 648,-101.55"/>
</g>
<!-- libdav1d -->
<g id="node7" class="node">
<title>libdav1d</title>
<ellipse fill="none" stroke="black" cx="724.34" cy="-90" rx="53.89" ry="18"/>
<text text-anchor="middle" x="724.34" y="-86.3" font-family="Times,serif" font-size="14.00">libdav1d</text>
</g>
<!-- ffmpeg&#45;&gt;libdav1d -->
<g id="edge6" class="edge">
<title>ffmpeg&#45;&gt;libdav1d</title>
<path fill="none" stroke="black" d="M1088.54,-156.15C1024.16,-148.17 895.21,-130.84 787.34,-108 782.92,-107.06 778.35,-106.01 773.78,-104.89"/>
<polygon fill="black" stroke="black" points="774.39,-101.43 763.84,-102.37 772.67,-108.22 774.39,-101.43"/>
</g>
<!-- libx264 -->
<g id="node8" class="node">
<title>libx264</title>
<ellipse fill="none" stroke="black" cx="844.34" cy="-90" rx="48.19" ry="18"/>
<text text-anchor="middle" x="844.34" y="-86.3" font-family="Times,serif" font-size="14.00">libx264</text>
</g>
<!-- ffmpeg&#45;&gt;libx264 -->
<g id="edge7" class="edge">
<title>ffmpeg&#45;&gt;libx264</title>
<path fill="none" stroke="black" d="M1092.05,-153.07C1046.75,-143.27 968.12,-125.7 901.34,-108 897.58,-107 893.68,-105.93 889.78,-104.82"/>
<polygon fill="black" stroke="black" points="890.71,-101.45 880.13,-102.04 888.77,-108.17 890.71,-101.45"/>
</g>
<!-- libx265 -->
<g id="node9" class="node">
<title>libx265</title>
<ellipse fill="none" stroke="black" cx="958.34" cy="-90" rx="48.19" ry="18"/>
<text text-anchor="middle" x="958.34" y="-86.3" font-family="Times,serif" font-size="14.00">libx265</text>
</g>
<!-- ffmpeg&#45;&gt;libx265 -->
<g id="edge8" class="edge">
<title>ffmpeg&#45;&gt;libx265</title>
<path fill="none" stroke="black" d="M1099.56,-148.81C1071.76,-137.43 1030.03,-120.35 999.14,-107.7"/>
<polygon fill="black" stroke="black" points="1000.1,-104.31 989.52,-103.76 997.45,-110.79 1000.1,-104.31"/>
</g>
<!-- libopus -->
<g id="node10" class="node">
<title>libopus</title>
<ellipse fill="none" stroke="black" cx="1072.34" cy="-90" rx="48.19" ry="18"/>
<text text-anchor="middle" x="1072.34" y="-86.3" font-family="Times,serif" font-size="14.00">libopus</text>
</g>
<!-- ffmpeg&#45;&gt;libopus -->
<g id="edge9" class="edge">
<title>ffmpeg&#45;&gt;libopus</title>
<path fill="none" stroke="black" d="M1116.12,-144.76C1109.03,-136.06 1100.15,-125.15 1092.24,-115.43"/>
<polygon fill="black" stroke="black" points="1094.92,-113.18 1085.89,-107.63 1089.49,-117.6 1094.92,-113.18"/>
</g>
<!-- libxvid -->
<g id="node11" class="node">
<title>libxvid</title>
<ellipse fill="none" stroke="black" cx="1186.34" cy="-90" rx="48.19" ry="18"/>
<text text-anchor="middle" x="1186.34" y="-86.3" font-family="Times,serif" font-size="14.00">libxvid</text>
</g>
<!-- ffmpeg&#45;&gt;libxvid -->
<g id="edge10" class="edge">
<title>ffmpeg&#45;&gt;libxvid</title>
<path fill="none" stroke="black" d="M1142.56,-144.76C1149.66,-136.06 1158.54,-125.15 1166.45,-115.43"/>
<polygon fill="black" stroke="black" points="1169.2,-117.6 1172.8,-107.63 1163.77,-113.18 1169.2,-117.6"/>
</g>
<!-- libvpx -->
<g id="node12" class="node">
<title>libvpx</title>
<ellipse fill="none" stroke="black" cx="1295.34" cy="-90" rx="42.79" ry="18"/>
<text text-anchor="middle" x="1295.34" y="-86.3" font-family="Times,serif" font-size="14.00">libvpx</text>
</g>
<!-- ffmpeg&#45;&gt;libvpx -->
<g id="edge11" class="edge">
<title>ffmpeg&#45;&gt;libvpx</title>
<path fill="none" stroke="black" d="M1158.64,-148.65C1185.94,-137.14 1226.81,-119.9 1256.76,-107.27"/>
<polygon fill="black" stroke="black" points="1258.21,-110.46 1266.06,-103.35 1255.49,-104.01 1258.21,-110.46"/>
</g>
<!-- libwebp -->
<g id="node13" class="node">
<title>libwebp</title>
<ellipse fill="none" stroke="black" cx="1404.34" cy="-90" rx="48.19" ry="18"/>
<text text-anchor="middle" x="1404.34" y="-86.3" font-family="Times,serif" font-size="14.00">libwebp</text>
</g>
<!-- ffmpeg&#45;&gt;libwebp -->
<g id="edge12" class="edge">
<title>ffmpeg&#45;&gt;libwebp</title>
<path fill="none" stroke="black" d="M1166.13,-152.66C1209.59,-142.68 1283.99,-125.14 1347.34,-108 1350.95,-107.03 1354.67,-105.99 1358.4,-104.92"/>
<polygon fill="black" stroke="black" points="1359.61,-108.22 1368.24,-102.07 1357.66,-101.49 1359.61,-108.22"/>
</g>
<!-- libtiff -->
<g id="node14" class="node">
<title>libtiff</title>
<ellipse fill="none" stroke="black" cx="1518.34" cy="-90" rx="48.19" ry="18"/>
<text text-anchor="middle" x="1518.34" y="-86.3" font-family="Times,serif" font-size="14.00">libtiff</text>
</g>
<!-- ffmpeg&#45;&gt;libtiff -->
<g id="edge13" class="edge">
<title>ffmpeg&#45;&gt;libtiff</title>
<path fill="none" stroke="black" d="M1170.05,-156.26C1232.98,-148.53 1357.48,-131.67 1461.34,-108 1465.2,-107.12 1469.17,-106.13 1473.15,-105.07"/>
<polygon fill="black" stroke="black" points="1474.26,-108.39 1482.96,-102.34 1472.39,-101.65 1474.26,-108.39"/>
</g>
<!-- libpng -->
<g id="node15" class="node">
<title>libpng</title>
<ellipse fill="none" stroke="black" cx="1627.34" cy="-90" rx="42.79" ry="18"/>
<text text-anchor="middle" x="1627.34" y="-86.3" font-family="Times,serif" font-size="14.00">libpng</text>
</g>
<!-- ffmpeg&#45;&gt;libpng -->
<g id="edge14" class="edge">
<title>ffmpeg&#45;&gt;libpng</title>
<path fill="none" stroke="black" d="M1171.62,-158.77C1251.37,-153.94 1429.15,-140.25 1575.34,-108 1578.94,-107.21 1582.64,-106.26 1586.33,-105.23"/>
<polygon fill="black" stroke="black" points="1587.41,-108.56 1596,-102.35 1585.41,-101.86 1587.41,-108.56"/>
</g>
<!-- libjpeg&#45;turbo -->
<g id="node16" class="node">
<title>libjpeg&#45;turbo</title>
<ellipse fill="none" stroke="black" cx="1768.34" cy="-90" rx="80.69" ry="18"/>
<text text-anchor="middle" x="1768.34" y="-86.3" font-family="Times,serif" font-size="14.00">libjpeg&#45;turbo</text>
</g>
<!-- ffmpeg&#45;&gt;libjpeg&#45;turbo -->
<g id="edge15" class="edge">
<title>ffmpeg&#45;&gt;libjpeg&#45;turbo</title>
<path fill="none" stroke="black" d="M1171.59,-158.27C1263.99,-152.01 1490.85,-135.02 1679.34,-108 1686.41,-106.99 1693.77,-105.8 1701.09,-104.53"/>
<polygon fill="black" stroke="black" points="1701.79,-107.96 1711.02,-102.76 1700.56,-101.07 1701.79,-107.96"/>
</g>
<!-- libgif -->
<g id="node17" class="node">
<title>libgif</title>
<ellipse fill="none" stroke="black" cx="1909.34" cy="-90" rx="42.79" ry="18"/>
<text text-anchor="middle" x="1909.34" y="-86.3" font-family="Times,serif" font-size="14.00">libgif</text>
</g>
<!-- ffmpeg&#45;&gt;libgif -->
<g id="edge16" class="edge">
<title>ffmpeg&#45;&gt;libgif</title>
<path fill="none" stroke="black" d="M1172.57,-161.58C1286.17,-162.32 1602,-159.21 1858.34,-108 1861.79,-107.31 1865.32,-106.46 1868.85,-105.5"/>
<polygon fill="black" stroke="black" points="1870.07,-108.79 1878.66,-102.6 1868.08,-102.08 1870.07,-108.79"/>
</g>
<!-- libxml2 -->
<g id="node18" class="node">
<title>libxml2</title>
<ellipse fill="none" stroke="black" cx="2018.34" cy="-90" rx="48.19" ry="18"/>
<text text-anchor="middle" x="2018.34" y="-86.3" font-family="Times,serif" font-size="14.00">libxml2</text>
</g>
<!-- ffmpeg&#45;&gt;libxml2 -->
<g id="edge17" class="edge">
<title>ffmpeg&#45;&gt;libxml2</title>
<path fill="none" stroke="black" d="M1172.62,-161.67C1296.58,-162.86 1663.2,-161.25 1961.34,-108 1965.52,-107.25 1969.82,-106.31 1974.1,-105.25"/>
<polygon fill="black" stroke="black" points="1975.23,-108.57 1983.98,-102.61 1973.42,-101.81 1975.23,-108.57"/>
</g>
<!-- sdl2 -->
<g id="node19" class="node">
<title>sdl2</title>
<ellipse fill="none" stroke="black" cx="2117.34" cy="-90" rx="32.49" ry="18"/>
<text text-anchor="middle" x="2117.34" y="-86.3" font-family="Times,serif" font-size="14.00">sdl2</text>
</g>
<!-- ffmpeg&#45;&gt;sdl2 -->
<g id="edge18" class="edge">
<title>ffmpeg&#45;&gt;sdl2</title>
<path fill="none" stroke="black" d="M1172.18,-160.46C1332.88,-158.15 1899.68,-147.34 2075.34,-108 2078.15,-107.37 2081.01,-106.58 2083.86,-105.67"/>
<polygon fill="black" stroke="black" points="2085.11,-108.94 2093.35,-102.28 2082.75,-102.35 2085.11,-108.94"/>
</g>
<!-- libogg -->
<g id="node24" class="node">
<title>libogg</title>
<ellipse fill="none" stroke="black" cx="341.34" cy="-18" rx="42.79" ry="18"/>
<text text-anchor="middle" x="341.34" y="-14.3" font-family="Times,serif" font-size="14.00">libogg</text>
</g>
<!-- libtheora&#45;&gt;libogg -->
<g id="edge28" class="edge">
<title>libtheora&#45;&gt;libogg</title>
<path fill="none" stroke="black" d="M234.19,-74.15C255.2,-63.34 283.78,-48.63 306.14,-37.12"/>
<polygon fill="black" stroke="black" points="308.01,-40.09 315.3,-32.4 304.81,-33.87 308.01,-40.09"/>
</g>
<!-- libvorbis&#45;&gt;libogg -->
<g id="edge27" class="edge">
<title>libvorbis&#45;&gt;libogg</title>
<path fill="none" stroke="black" d="M341.34,-71.7C341.34,-63.98 341.34,-54.71 341.34,-46.11"/>
<polygon fill="black" stroke="black" points="344.84,-46.1 341.34,-36.1 337.84,-46.1 344.84,-46.1"/>
</g>
<!-- libspeex&#45;&gt;libogg -->
<g id="edge25" class="edge">
<title>libspeex&#45;&gt;libogg</title>
<path fill="none" stroke="black" d="M444.88,-74.33C424.79,-63.59 397.4,-48.95 375.84,-37.43"/>
<polygon fill="black" stroke="black" points="377.46,-34.33 366.99,-32.7 374.16,-40.5 377.46,-34.33"/>
</g>
<!-- libspeexdsp -->
<g id="node25" class="node">
<title>libspeexdsp</title>
<ellipse fill="none" stroke="black" cx="472.34" cy="-18" rx="69.59" ry="18"/>
<text text-anchor="middle" x="472.34" y="-14.3" font-family="Times,serif" font-size="14.00">libspeexdsp</text>
</g>
<!-- libspeex&#45;&gt;libspeexdsp -->
<g id="edge26" class="edge">
<title>libspeex&#45;&gt;libspeexdsp</title>
<path fill="none" stroke="black" d="M472.34,-71.7C472.34,-63.98 472.34,-54.71 472.34,-46.11"/>
<polygon fill="black" stroke="black" points="475.84,-46.1 472.34,-36.1 468.84,-46.1 475.84,-46.1"/>
</g>
<!-- libz -->
<g id="node21" class="node">
<title>libz</title>
<ellipse fill="none" stroke="black" cx="1627.34" cy="-18" rx="32.49" ry="18"/>
<text text-anchor="middle" x="1627.34" y="-14.3" font-family="Times,serif" font-size="14.00">libz</text>
</g>
<!-- libtiff&#45;&gt;libz -->
<g id="edge22" class="edge">
<title>libtiff&#45;&gt;libz</title>
<path fill="none" stroke="black" d="M1541.46,-74.15C1557.96,-63.56 1580.27,-49.23 1598.02,-37.83"/>
<polygon fill="black" stroke="black" points="1600.31,-40.52 1606.83,-32.17 1596.53,-34.63 1600.31,-40.52"/>
</g>
<!-- libzstd -->
<g id="node22" class="node">
<title>libzstd</title>
<ellipse fill="none" stroke="black" cx="1409.34" cy="-18" rx="48.19" ry="18"/>
<text text-anchor="middle" x="1409.34" y="-14.3" font-family="Times,serif" font-size="14.00">libzstd</text>
</g>
<!-- libtiff&#45;&gt;libzstd -->
<g id="edge23" class="edge">
<title>libtiff&#45;&gt;libzstd</title>
<path fill="none" stroke="black" d="M1495.23,-74.15C1479.48,-64.04 1458.42,-50.52 1441.1,-39.39"/>
<polygon fill="black" stroke="black" points="1442.73,-36.28 1432.43,-33.82 1438.95,-42.17 1442.73,-36.28"/>
</g>
<!-- liblzma -->
<g id="node23" class="node">
<title>liblzma</title>
<ellipse fill="none" stroke="black" cx="1523.34" cy="-18" rx="48.19" ry="18"/>
<text text-anchor="middle" x="1523.34" y="-14.3" font-family="Times,serif" font-size="14.00">liblzma</text>
</g>
<!-- libtiff&#45;&gt;liblzma -->
<g id="edge24" class="edge">
<title>libtiff&#45;&gt;liblzma</title>
<path fill="none" stroke="black" d="M1519.58,-71.7C1520.13,-63.98 1520.79,-54.71 1521.41,-46.11"/>
<polygon fill="black" stroke="black" points="1524.9,-46.33 1522.12,-36.1 1517.92,-45.83 1524.9,-46.33"/>
</g>
<!-- libpng&#45;&gt;libz -->
<g id="edge21" class="edge">
<title>libpng&#45;&gt;libz</title>
<path fill="none" stroke="black" d="M1627.34,-71.7C1627.34,-63.98 1627.34,-54.71 1627.34,-46.11"/>
<polygon fill="black" stroke="black" points="1630.84,-46.1 1627.34,-36.1 1623.84,-46.1 1630.84,-46.1"/>
</g>
<!-- libiconv -->
<g id="node20" class="node">
<title>libiconv</title>
<ellipse fill="none" stroke="black" cx="2018.34" cy="-18" rx="53.89" ry="18"/>
<text text-anchor="middle" x="2018.34" y="-14.3" font-family="Times,serif" font-size="14.00">libiconv</text>
</g>
<!-- libxml2&#45;&gt;libiconv -->
<g id="edge19" class="edge">
<title>libxml2&#45;&gt;libiconv</title>
<path fill="none" stroke="black" d="M2018.34,-71.7C2018.34,-63.98 2018.34,-54.71 2018.34,-46.11"/>
<polygon fill="black" stroke="black" points="2021.84,-46.1 2018.34,-36.1 2014.84,-46.1 2021.84,-46.1"/>
</g>
<!-- libxml2&#45;&gt;libz -->
<g id="edge20" class="edge">
<title>libxml2&#45;&gt;libz</title>
<path fill="none" stroke="black" d="M1982.96,-77.66C1975.85,-75.6 1968.39,-73.6 1961.34,-72 1857.22,-48.32 1732.46,-31.54 1668.95,-23.8"/>
<polygon fill="black" stroke="black" points="1669.27,-20.32 1658.92,-22.59 1668.43,-27.26 1669.27,-20.32"/>
</g>
</g>
</svg>
