<?xml version="1.0" encoding="UTF-8" standalone="no"?>
<!DOCTYPE svg PUBLIC "-//W3C//DTD SVG 1.1//EN"
 "http://www.w3.org/Graphics/SVG/1.1/DTD/svg11.dtd">
<!-- Generated by graphviz version 2.43.0 (0)
 -->
<!-- Title: G Pages: 1 -->
<svg width="720pt" height="116pt"
 viewBox="0.00 0.00 719.89 116.00" xmlns="http://www.w3.org/2000/svg" xmlns:xlink="http://www.w3.org/1999/xlink">
<g id="graph0" class="graph" transform="scale(1 1) rotate(0) translate(4 112)">
<title>G</title>
<polygon fill="white" stroke="transparent" points="-4,4 -4,-112 715.89,-112 715.89,4 -4,4"/>
<!-- curl -->
<g id="node1" class="node">
<title>curl</title>
<ellipse fill="none" stroke="black" cx="369.34" cy="-90" rx="32.49" ry="18"/>
<text text-anchor="middle" x="369.34" y="-86.3" font-family="Times,serif" font-size="14.00">curl</text>
</g>
<!-- libnghttp2 -->
<g id="node2" class="node">
<title>libnghttp2</title>
<ellipse fill="none" stroke="black" cx="64.34" cy="-18" rx="64.19" ry="18"/>
<text text-anchor="middle" x="64.34" y="-14.3" font-family="Times,serif" font-size="14.00">libnghttp2</text>
</g>
<!-- curl&#45;&gt;libnghttp2 -->
<g id="edge1" class="edge">
<title>curl&#45;&gt;libnghttp2</title>
<path fill="none" stroke="black" d="M339.67,-82.26C295.54,-72.23 210.01,-52.76 137.34,-36 132.4,-34.86 127.27,-33.67 122.12,-32.48"/>
<polygon fill="black" stroke="black" points="122.78,-29.04 112.24,-30.19 121.19,-35.86 122.78,-29.04"/>
</g>
<!-- libcares -->
<g id="node3" class="node">
<title>libcares</title>
<ellipse fill="none" stroke="black" cx="200.34" cy="-18" rx="53.89" ry="18"/>
<text text-anchor="middle" x="200.34" y="-14.3" font-family="Times,serif" font-size="14.00">libcares</text>
</g>
<!-- curl&#45;&gt;libcares -->
<g id="edge2" class="edge">
<title>curl&#45;&gt;libcares</title>
<path fill="none" stroke="black" d="M344.04,-78.52C317.17,-67.39 274.25,-49.61 242.31,-36.38"/>
<polygon fill="black" stroke="black" points="243.35,-33.03 232.77,-32.43 240.67,-39.49 243.35,-33.03"/>
</g>
<!-- libzstd -->
<g id="node4" class="node">
<title>libzstd</title>
<ellipse fill="none" stroke="black" cx="320.34" cy="-18" rx="48.19" ry="18"/>
<text text-anchor="middle" x="320.34" y="-14.3" font-family="Times,serif" font-size="14.00">libzstd</text>
</g>
<!-- curl&#45;&gt;libzstd -->
<g id="edge3" class="edge">
<title>curl&#45;&gt;libzstd</title>
<path fill="none" stroke="black" d="M357.98,-72.76C352.01,-64.23 344.55,-53.58 337.86,-44.02"/>
<polygon fill="black" stroke="black" points="340.59,-41.82 331.99,-35.63 334.86,-45.83 340.59,-41.82"/>
</g>
<!-- libz -->
<g id="node5" class="node">
<title>libz</title>
<ellipse fill="none" stroke="black" cx="419.34" cy="-18" rx="32.49" ry="18"/>
<text text-anchor="middle" x="419.34" y="-14.3" font-family="Times,serif" font-size="14.00">libz</text>
</g>
<!-- curl&#45;&gt;libz -->
<g id="edge4" class="edge">
<title>curl&#45;&gt;libz</title>
<path fill="none" stroke="black" d="M380.69,-73.12C386.93,-64.38 394.81,-53.35 401.82,-43.54"/>
<polygon fill="black" stroke="black" points="404.73,-45.48 407.7,-35.31 399.04,-41.41 404.73,-45.48"/>
</g>
<!-- brotli -->
<g id="node6" class="node">
<title>brotli</title>
<ellipse fill="none" stroke="black" cx="512.34" cy="-18" rx="42.79" ry="18"/>
<text text-anchor="middle" x="512.34" y="-14.3" font-family="Times,serif" font-size="14.00">brotli</text>
</g>
<!-- curl&#45;&gt;brotli -->
<g id="edge5" class="edge">
<title>curl&#45;&gt;brotli</title>
<path fill="none" stroke="black" d="M392.96,-77.44C415.57,-66.37 450,-49.52 476.08,-36.75"/>
<polygon fill="black" stroke="black" points="477.84,-39.79 485.28,-32.25 474.76,-33.5 477.84,-39.79"/>
</g>
<!-- openssl&#45;dev -->
<g id="node7" class="node">
<title>openssl&#45;dev</title>
<ellipse fill="none" stroke="black" cx="642.34" cy="-18" rx="69.59" ry="18"/>
<text text-anchor="middle" x="642.34" y="-14.3" font-family="Times,serif" font-size="14.00">openssl&#45;dev</text>
</g>
<!-- curl&#45;&gt;openssl&#45;dev -->
<g id="edge6" class="edge">
<title>curl&#45;&gt;openssl&#45;dev</title>
<path fill="none" stroke="black" d="M398.3,-81.58C442.45,-70.26 527.45,-48.46 584.55,-33.82"/>
<polygon fill="black" stroke="black" points="585.7,-37.14 594.52,-31.26 583.97,-30.36 585.7,-37.14"/>
</g>
</g>
</svg>
