<?xml version="1.0" encoding="UTF-8" standalone="no"?>
<!DOCTYPE svg PUBLIC "-//W3C//DTD SVG 1.1//EN"
 "http://www.w3.org/Graphics/SVG/1.1/DTD/svg11.dtd">
<!-- Generated by graphviz version 2.43.0 (0)
 -->
<!-- Title: G Pages: 1 -->
<svg width="470pt" height="260pt"
 viewBox="0.00 0.00 469.89 260.00" xmlns="http://www.w3.org/2000/svg" xmlns:xlink="http://www.w3.org/1999/xlink">
<g id="graph0" class="graph" transform="scale(1 1) rotate(0) translate(4 256)">
<title>G</title>
<polygon fill="white" stroke="transparent" points="-4,4 -4,-256 465.89,-256 465.89,4 -4,4"/>
<!-- libplacebo -->
<g id="node1" class="node">
<title>libplacebo</title>
<ellipse fill="none" stroke="black" cx="305.1" cy="-234" rx="64.19" ry="18"/>
<text text-anchor="middle" x="305.1" y="-230.3" font-family="Times,serif" font-size="14.00">libplacebo</text>
</g>
<!-- lcms2 -->
<g id="node2" class="node">
<title>lcms2</title>
<ellipse fill="none" stroke="black" cx="235.1" cy="-162" rx="37.89" ry="18"/>
<text text-anchor="middle" x="235.1" y="-158.3" font-family="Times,serif" font-size="14.00">lcms2</text>
</g>
<!-- libplacebo&#45;&gt;lcms2 -->
<g id="edge1" class="edge">
<title>libplacebo&#45;&gt;lcms2</title>
<path fill="none" stroke="black" d="M288.51,-216.41C279.36,-207.26 267.86,-195.76 257.88,-185.78"/>
<polygon fill="black" stroke="black" points="260.15,-183.11 250.61,-178.51 255.2,-188.06 260.15,-183.11"/>
</g>
<!-- vulkan&#45;headers -->
<g id="node3" class="node">
<title>vulkan&#45;headers</title>
<ellipse fill="none" stroke="black" cx="376.1" cy="-162" rx="85.59" ry="18"/>
<text text-anchor="middle" x="376.1" y="-158.3" font-family="Times,serif" font-size="14.00">vulkan&#45;headers</text>
</g>
<!-- libplacebo&#45;&gt;vulkan&#45;headers -->
<g id="edge2" class="edge">
<title>libplacebo&#45;&gt;vulkan&#45;headers</title>
<path fill="none" stroke="black" d="M321.92,-216.41C330.81,-207.65 341.88,-196.73 351.7,-187.06"/>
<polygon fill="black" stroke="black" points="354.23,-189.47 358.9,-179.96 349.32,-184.48 354.23,-189.47"/>
</g>
<!-- libtiff -->
<g id="node4" class="node">
<title>libtiff</title>
<ellipse fill="none" stroke="black" cx="162.1" cy="-90" rx="48.19" ry="18"/>
<text text-anchor="middle" x="162.1" y="-86.3" font-family="Times,serif" font-size="14.00">libtiff</text>
</g>
<!-- lcms2&#45;&gt;libtiff -->
<g id="edge3" class="edge">
<title>lcms2&#45;&gt;libtiff</title>
<path fill="none" stroke="black" d="M218.89,-145.46C209.3,-136.26 196.95,-124.42 186.22,-114.13"/>
<polygon fill="black" stroke="black" points="188.4,-111.37 178.76,-106.98 183.55,-116.42 188.4,-111.37"/>
</g>
<!-- libjpeg&#45;turbo -->
<g id="node5" class="node">
<title>libjpeg&#45;turbo</title>
<ellipse fill="none" stroke="black" cx="309.1" cy="-90" rx="80.69" ry="18"/>
<text text-anchor="middle" x="309.1" y="-86.3" font-family="Times,serif" font-size="14.00">libjpeg&#45;turbo</text>
</g>
<!-- lcms2&#45;&gt;libjpeg&#45;turbo -->
<g id="edge4" class="edge">
<title>lcms2&#45;&gt;libjpeg&#45;turbo</title>
<path fill="none" stroke="black" d="M251.52,-145.46C261.04,-136.45 273.24,-124.92 283.95,-114.79"/>
<polygon fill="black" stroke="black" points="286.57,-117.13 291.43,-107.71 281.76,-112.04 286.57,-117.13"/>
</g>
<!-- libzstd -->
<g id="node6" class="node">
<title>libzstd</title>
<ellipse fill="none" stroke="black" cx="48.1" cy="-18" rx="48.19" ry="18"/>
<text text-anchor="middle" x="48.1" y="-14.3" font-family="Times,serif" font-size="14.00">libzstd</text>
</g>
<!-- libtiff&#45;&gt;libzstd -->
<g id="edge5" class="edge">
<title>libtiff&#45;&gt;libzstd</title>
<path fill="none" stroke="black" d="M138.2,-74.33C121.48,-64.06 98.94,-50.22 80.59,-38.95"/>
<polygon fill="black" stroke="black" points="82.32,-35.91 71.96,-33.65 78.65,-41.87 82.32,-35.91"/>
</g>
<!-- liblzma -->
<g id="node7" class="node">
<title>liblzma</title>
<ellipse fill="none" stroke="black" cx="162.1" cy="-18" rx="48.19" ry="18"/>
<text text-anchor="middle" x="162.1" y="-14.3" font-family="Times,serif" font-size="14.00">liblzma</text>
</g>
<!-- libtiff&#45;&gt;liblzma -->
<g id="edge6" class="edge">
<title>libtiff&#45;&gt;liblzma</title>
<path fill="none" stroke="black" d="M162.1,-71.7C162.1,-63.98 162.1,-54.71 162.1,-46.11"/>
<polygon fill="black" stroke="black" points="165.6,-46.1 162.1,-36.1 158.6,-46.1 165.6,-46.1"/>
</g>
<!-- libz -->
<g id="node8" class="node">
<title>libz</title>
<ellipse fill="none" stroke="black" cx="261.1" cy="-18" rx="32.49" ry="18"/>
<text text-anchor="middle" x="261.1" y="-14.3" font-family="Times,serif" font-size="14.00">libz</text>
</g>
<!-- libtiff&#45;&gt;libz -->
<g id="edge7" class="edge">
<title>libtiff&#45;&gt;libz</title>
<path fill="none" stroke="black" d="M183.58,-73.81C198.16,-63.5 217.59,-49.76 233.35,-38.62"/>
<polygon fill="black" stroke="black" points="235.52,-41.37 241.67,-32.74 231.48,-35.65 235.52,-41.37"/>
</g>
</g>
</svg>
