<?xml version="1.0" encoding="UTF-8" standalone="no"?>
<!DOCTYPE svg PUBLIC "-//W3C//DTD SVG 1.1//EN"
 "http://www.w3.org/Graphics/SVG/1.1/DTD/svg11.dtd">
<!-- Generated by graphviz version 2.43.0 (0)
 -->
<!-- Title: G Pages: 1 -->
<svg width="720pt" height="116pt"
 viewBox="0.00 0.00 719.89 116.00" xmlns="http://www.w3.org/2000/svg" xmlns:xlink="http://www.w3.org/1999/xlink">
<g id="graph0" class="graph" transform="scale(1 1) rotate(0) translate(4 112)">
<title>G</title>
<polygon fill="white" stroke="transparent" points="-4,4 -4,-112 715.89,-112 715.89,4 -4,4"/>
<!-- libcurl -->
<g id="node1" class="node">
<title>libcurl</title>
<ellipse fill="none" stroke="black" cx="369.34" cy="-90" rx="48.19" ry="18"/>
<text text-anchor="middle" x="369.34" y="-86.3" font-family="Times,serif" font-size="14.00">libcurl</text>
</g>
<!-- libnghttp2 -->
<g id="node2" class="node">
<title>libnghttp2</title>
<ellipse fill="none" stroke="black" cx="64.34" cy="-18" rx="64.19" ry="18"/>
<text text-anchor="middle" x="64.34" y="-14.3" font-family="Times,serif" font-size="14.00">libnghttp2</text>
</g>
<!-- libcurl&#45;&gt;libnghttp2 -->
<g id="edge1" class="edge">
<title>libcurl&#45;&gt;libnghttp2</title>
<path fill="none" stroke="black" d="M329.1,-79.86C282.82,-69.34 204.58,-51.51 137.34,-36 132.4,-34.86 127.27,-33.67 122.12,-32.48"/>
<polygon fill="black" stroke="black" points="122.78,-29.04 112.24,-30.19 121.19,-35.86 122.78,-29.04"/>
</g>
<!-- libcares -->
<g id="node3" class="node">
<title>libcares</title>
<ellipse fill="none" stroke="black" cx="200.34" cy="-18" rx="53.89" ry="18"/>
<text text-anchor="middle" x="200.34" y="-14.3" font-family="Times,serif" font-size="14.00">libcares</text>
</g>
<!-- libcurl&#45;&gt;libcares -->
<g id="edge2" class="edge">
<title>libcurl&#45;&gt;libcares</title>
<path fill="none" stroke="black" d="M338.35,-76.16C311.35,-64.98 271.97,-48.67 242.18,-36.33"/>
<polygon fill="black" stroke="black" points="243.45,-33.07 232.87,-32.47 240.77,-39.53 243.45,-33.07"/>
</g>
<!-- libzstd -->
<g id="node4" class="node">
<title>libzstd</title>
<ellipse fill="none" stroke="black" cx="320.34" cy="-18" rx="48.19" ry="18"/>
<text text-anchor="middle" x="320.34" y="-14.3" font-family="Times,serif" font-size="14.00">libzstd</text>
</g>
<!-- libcurl&#45;&gt;libzstd -->
<g id="edge3" class="edge">
<title>libcurl&#45;&gt;libzstd</title>
<path fill="none" stroke="black" d="M357.73,-72.41C351.84,-63.99 344.55,-53.58 337.98,-44.2"/>
<polygon fill="black" stroke="black" points="340.82,-42.14 332.21,-35.96 335.08,-46.16 340.82,-42.14"/>
</g>
<!-- libz -->
<g id="node5" class="node">
<title>libz</title>
<ellipse fill="none" stroke="black" cx="419.34" cy="-18" rx="32.49" ry="18"/>
<text text-anchor="middle" x="419.34" y="-14.3" font-family="Times,serif" font-size="14.00">libz</text>
</g>
<!-- libcurl&#45;&gt;libz -->
<g id="edge4" class="edge">
<title>libcurl&#45;&gt;libz</title>
<path fill="none" stroke="black" d="M381.19,-72.41C387.38,-63.74 395.08,-52.97 401.93,-43.38"/>
<polygon fill="black" stroke="black" points="404.96,-45.16 407.92,-34.99 399.26,-41.09 404.96,-45.16"/>
</g>
<!-- brotli -->
<g id="node6" class="node">
<title>brotli</title>
<ellipse fill="none" stroke="black" cx="512.34" cy="-18" rx="42.79" ry="18"/>
<text text-anchor="middle" x="512.34" y="-14.3" font-family="Times,serif" font-size="14.00">brotli</text>
</g>
<!-- libcurl&#45;&gt;brotli -->
<g id="edge5" class="edge">
<title>libcurl&#45;&gt;brotli</title>
<path fill="none" stroke="black" d="M397.26,-75.34C419.89,-64.26 451.94,-48.57 476.47,-36.56"/>
<polygon fill="black" stroke="black" points="478.03,-39.69 485.47,-32.15 474.95,-33.41 478.03,-39.69"/>
</g>
<!-- openssl&#45;dev -->
<g id="node7" class="node">
<title>openssl&#45;dev</title>
<ellipse fill="none" stroke="black" cx="642.34" cy="-18" rx="69.59" ry="18"/>
<text text-anchor="middle" x="642.34" y="-14.3" font-family="Times,serif" font-size="14.00">openssl&#45;dev</text>
</g>
<!-- libcurl&#45;&gt;openssl&#45;dev -->
<g id="edge6" class="edge">
<title>libcurl&#45;&gt;openssl&#45;dev</title>
<path fill="none" stroke="black" d="M407.88,-79.12C454,-67.29 531.65,-47.38 584.86,-33.74"/>
<polygon fill="black" stroke="black" points="586.02,-37.06 594.83,-31.18 584.28,-30.28 586.02,-37.06"/>
</g>
</g>
</svg>
